<mxfile host="app.diagrams.net" modified="2022-05-25T03:23:57.237Z" agent="5.0 (Macintosh; Intel Mac OS X 10_15_7) AppleWebKit/537.36 (KHTML, like Gecko) Chrome/101.0.4951.64 Safari/537.36 Edg/101.0.1210.53" etag="7yT-zkp9rLKed5L-qMyg" version="18.0.7" type="github">
  <diagram id="hOjVhhrnTfYXUpvGVCq4" name="Page-1">
    <mxGraphModel dx="1787" dy="623" grid="1" gridSize="10" guides="1" tooltips="1" connect="1" arrows="1" fold="1" page="1" pageScale="1" pageWidth="827" pageHeight="1169" math="0" shadow="0">
      <root>
        <mxCell id="0" />
        <mxCell id="1" parent="0" />
        <mxCell id="v5fSAzi9pscg0SWZ9pVq-1" value="" style="endArrow=none;html=1;rounded=0;sketch=1;strokeColor=#67AB9F;startArrow=none;dashed=1;" parent="1" source="v5fSAzi9pscg0SWZ9pVq-131" edge="1">
          <mxGeometry width="50" height="50" relative="1" as="geometry">
            <mxPoint x="160" y="520" as="sourcePoint" />
            <mxPoint x="800" y="520" as="targetPoint" />
          </mxGeometry>
        </mxCell>
        <mxCell id="v5fSAzi9pscg0SWZ9pVq-2" value="" style="endArrow=none;html=1;rounded=0;sketch=1;strokeColor=#B5739D;startArrow=none;dashed=1;" parent="1" source="v5fSAzi9pscg0SWZ9pVq-111" edge="1">
          <mxGeometry width="50" height="50" relative="1" as="geometry">
            <mxPoint x="160" y="560" as="sourcePoint" />
            <mxPoint x="800" y="560" as="targetPoint" />
          </mxGeometry>
        </mxCell>
        <mxCell id="v5fSAzi9pscg0SWZ9pVq-3" value="" style="endArrow=none;html=1;rounded=0;sketch=1;strokeColor=#FF6666;fillColor=#ffe6cc;startArrow=none;dashed=1;" parent="1" source="v5fSAzi9pscg0SWZ9pVq-47" edge="1">
          <mxGeometry width="50" height="50" relative="1" as="geometry">
            <mxPoint x="160" y="600" as="sourcePoint" />
            <mxPoint x="800" y="600" as="targetPoint" />
          </mxGeometry>
        </mxCell>
        <mxCell id="v5fSAzi9pscg0SWZ9pVq-5" value="" style="shape=curlyBracket;whiteSpace=wrap;html=1;rounded=1;sketch=1;" parent="1" vertex="1">
          <mxGeometry x="70" y="520" width="20" height="90" as="geometry" />
        </mxCell>
        <mxCell id="v5fSAzi9pscg0SWZ9pVq-6" value="&lt;font face=&quot;Comic Sans MS&quot;&gt;upstream&lt;/font&gt;" style="text;html=1;align=center;verticalAlign=middle;resizable=0;points=[];autosize=1;strokeColor=none;fillColor=none;sketch=1;" parent="1" vertex="1">
          <mxGeometry x="5" y="550" width="70" height="20" as="geometry" />
        </mxCell>
        <mxCell id="v5fSAzi9pscg0SWZ9pVq-7" value="Master" style="text;html=1;align=center;verticalAlign=middle;resizable=0;points=[];autosize=1;strokeColor=none;fillColor=#67AB9F;fontFamily=Comic Sans MS;" parent="1" vertex="1">
          <mxGeometry x="90" y="510" width="60" height="20" as="geometry" />
        </mxCell>
        <mxCell id="v5fSAzi9pscg0SWZ9pVq-9" value="Develop" style="text;html=1;align=center;verticalAlign=middle;resizable=0;points=[];autosize=1;strokeColor=none;fillColor=#B5739D;fontFamily=Comic Sans MS;" parent="1" vertex="1">
          <mxGeometry x="90" y="550" width="60" height="20" as="geometry" />
        </mxCell>
        <mxCell id="v5fSAzi9pscg0SWZ9pVq-10" value="Hotfix" style="text;html=1;align=center;verticalAlign=middle;resizable=0;points=[];autosize=1;strokeColor=none;fillColor=#FF6666;fontFamily=Comic Sans MS;" parent="1" vertex="1">
          <mxGeometry x="95" y="590" width="50" height="20" as="geometry" />
        </mxCell>
        <mxCell id="v5fSAzi9pscg0SWZ9pVq-11" value="" style="endArrow=none;html=1;rounded=0;sketch=1;strokeColor=#67AB9F;startArrow=none;dashed=1;" parent="1" source="v5fSAzi9pscg0SWZ9pVq-28" edge="1">
          <mxGeometry width="50" height="50" relative="1" as="geometry">
            <mxPoint x="160" y="680" as="sourcePoint" />
            <mxPoint x="800" y="680" as="targetPoint" />
          </mxGeometry>
        </mxCell>
        <mxCell id="v5fSAzi9pscg0SWZ9pVq-12" value="" style="endArrow=none;html=1;rounded=0;sketch=1;strokeColor=#B5739D;dashed=1;startArrow=none;" parent="1" source="v5fSAzi9pscg0SWZ9pVq-107" edge="1">
          <mxGeometry width="50" height="50" relative="1" as="geometry">
            <mxPoint x="160" y="720" as="sourcePoint" />
            <mxPoint x="800" y="720" as="targetPoint" />
          </mxGeometry>
        </mxCell>
        <mxCell id="v5fSAzi9pscg0SWZ9pVq-13" value="" style="endArrow=none;html=1;rounded=0;sketch=1;strokeColor=#d79b00;fillColor=#ffe6cc;dashed=1;" parent="1" edge="1">
          <mxGeometry width="50" height="50" relative="1" as="geometry">
            <mxPoint x="160" y="800" as="sourcePoint" />
            <mxPoint x="800" y="800" as="targetPoint" />
          </mxGeometry>
        </mxCell>
        <mxCell id="v5fSAzi9pscg0SWZ9pVq-14" value="" style="shape=curlyBracket;whiteSpace=wrap;html=1;rounded=1;sketch=1;" parent="1" vertex="1">
          <mxGeometry x="70" y="680" width="20" height="120" as="geometry" />
        </mxCell>
        <mxCell id="v5fSAzi9pscg0SWZ9pVq-15" value="&lt;font face=&quot;Comic Sans MS&quot;&gt;origin&lt;/font&gt;" style="text;html=1;align=center;verticalAlign=middle;resizable=0;points=[];autosize=1;strokeColor=none;fillColor=none;sketch=1;" parent="1" vertex="1">
          <mxGeometry x="15" y="710" width="50" height="20" as="geometry" />
        </mxCell>
        <mxCell id="v5fSAzi9pscg0SWZ9pVq-16" value="Master" style="text;html=1;align=center;verticalAlign=middle;resizable=0;points=[];autosize=1;strokeColor=none;fillColor=#67AB9F;fontFamily=Comic Sans MS;" parent="1" vertex="1">
          <mxGeometry x="90" y="670" width="60" height="20" as="geometry" />
        </mxCell>
        <mxCell id="v5fSAzi9pscg0SWZ9pVq-17" value="Develop" style="text;html=1;align=center;verticalAlign=middle;resizable=0;points=[];autosize=1;strokeColor=none;fillColor=#B5739D;fontFamily=Comic Sans MS;" parent="1" vertex="1">
          <mxGeometry x="90" y="710" width="60" height="20" as="geometry" />
        </mxCell>
        <mxCell id="v5fSAzi9pscg0SWZ9pVq-18" value="Feature" style="text;html=1;align=center;verticalAlign=middle;resizable=0;points=[];autosize=1;strokeColor=none;fillColor=#FFCE9F;fontFamily=Comic Sans MS;" parent="1" vertex="1">
          <mxGeometry x="90" y="790" width="60" height="20" as="geometry" />
        </mxCell>
        <mxCell id="v5fSAzi9pscg0SWZ9pVq-19" value="" style="endArrow=none;html=1;rounded=0;sketch=1;strokeColor=#67AB9F;dashed=1;startArrow=none;" parent="1" source="v5fSAzi9pscg0SWZ9pVq-123" edge="1">
          <mxGeometry width="50" height="50" relative="1" as="geometry">
            <mxPoint x="160" y="920" as="sourcePoint" />
            <mxPoint x="800" y="920" as="targetPoint" />
          </mxGeometry>
        </mxCell>
        <mxCell id="v5fSAzi9pscg0SWZ9pVq-20" value="" style="endArrow=none;html=1;rounded=0;sketch=1;strokeColor=#B5739D;dashed=1;startArrow=none;" parent="1" source="v5fSAzi9pscg0SWZ9pVq-97" edge="1">
          <mxGeometry width="50" height="50" relative="1" as="geometry">
            <mxPoint x="160" y="960" as="sourcePoint" />
            <mxPoint x="800" y="960" as="targetPoint" />
          </mxGeometry>
        </mxCell>
        <mxCell id="v5fSAzi9pscg0SWZ9pVq-21" value="" style="endArrow=none;html=1;rounded=0;sketch=1;strokeColor=#d79b00;fillColor=#ffe6cc;dashed=1;startArrow=none;" parent="1" source="v5fSAzi9pscg0SWZ9pVq-60" edge="1">
          <mxGeometry width="50" height="50" relative="1" as="geometry">
            <mxPoint x="160" y="1040" as="sourcePoint" />
            <mxPoint x="800" y="1040" as="targetPoint" />
          </mxGeometry>
        </mxCell>
        <mxCell id="v5fSAzi9pscg0SWZ9pVq-22" value="" style="shape=curlyBracket;whiteSpace=wrap;html=1;rounded=1;sketch=1;" parent="1" vertex="1">
          <mxGeometry x="70" y="920" width="20" height="120" as="geometry" />
        </mxCell>
        <mxCell id="v5fSAzi9pscg0SWZ9pVq-23" value="&lt;font face=&quot;Comic Sans MS&quot;&gt;local&lt;/font&gt;" style="text;html=1;align=center;verticalAlign=middle;resizable=0;points=[];autosize=1;strokeColor=none;fillColor=none;sketch=1;" parent="1" vertex="1">
          <mxGeometry x="20" y="950" width="40" height="20" as="geometry" />
        </mxCell>
        <mxCell id="v5fSAzi9pscg0SWZ9pVq-24" value="Master" style="text;html=1;align=center;verticalAlign=middle;resizable=0;points=[];autosize=1;strokeColor=none;fillColor=#67AB9F;fontFamily=Comic Sans MS;" parent="1" vertex="1">
          <mxGeometry x="90" y="910" width="60" height="20" as="geometry" />
        </mxCell>
        <mxCell id="v5fSAzi9pscg0SWZ9pVq-25" value="Develop" style="text;html=1;align=center;verticalAlign=middle;resizable=0;points=[];autosize=1;strokeColor=none;fillColor=#B5739D;fontFamily=Comic Sans MS;" parent="1" vertex="1">
          <mxGeometry x="90" y="950" width="60" height="20" as="geometry" />
        </mxCell>
        <mxCell id="v5fSAzi9pscg0SWZ9pVq-26" value="Feature" style="text;html=1;align=center;verticalAlign=middle;resizable=0;points=[];autosize=1;strokeColor=none;fillColor=#FFCE9F;fontFamily=Comic Sans MS;" parent="1" vertex="1">
          <mxGeometry x="90" y="1030" width="60" height="20" as="geometry" />
        </mxCell>
        <mxCell id="v5fSAzi9pscg0SWZ9pVq-30" style="rounded=0;sketch=1;orthogonalLoop=1;jettySize=auto;html=1;entryX=0.5;entryY=0;entryDx=0;entryDy=0;fontFamily=Comic Sans MS;fontColor=#67AB9F;strokeColor=#67AB9F;strokeWidth=3;" parent="1" source="v5fSAzi9pscg0SWZ9pVq-27" target="v5fSAzi9pscg0SWZ9pVq-28" edge="1">
          <mxGeometry relative="1" as="geometry" />
        </mxCell>
        <mxCell id="v5fSAzi9pscg0SWZ9pVq-33" style="edgeStyle=none;rounded=0;sketch=1;orthogonalLoop=1;jettySize=auto;html=1;entryX=0.5;entryY=0;entryDx=0;entryDy=0;fontFamily=Comic Sans MS;fontColor=#67AB9F;strokeColor=#67AB9F;strokeWidth=3;" parent="1" source="v5fSAzi9pscg0SWZ9pVq-28" target="v5fSAzi9pscg0SWZ9pVq-32" edge="1">
          <mxGeometry relative="1" as="geometry" />
        </mxCell>
        <mxCell id="v5fSAzi9pscg0SWZ9pVq-37" value="&lt;font color=&quot;#000000&quot;&gt;Clone&lt;/font&gt;" style="edgeLabel;html=1;align=center;verticalAlign=middle;resizable=0;points=[];fontFamily=Comic Sans MS;fontColor=#67AB9F;" parent="v5fSAzi9pscg0SWZ9pVq-33" vertex="1" connectable="0">
          <mxGeometry x="0.3241" y="2" relative="1" as="geometry">
            <mxPoint x="-2" y="6" as="offset" />
          </mxGeometry>
        </mxCell>
        <mxCell id="v5fSAzi9pscg0SWZ9pVq-28" value="" style="ellipse;shape=doubleEllipse;whiteSpace=wrap;html=1;aspect=fixed;sketch=1;fontFamily=Comic Sans MS;fillColor=#67AB9F;strokeColor=#67AB9F;" parent="1" vertex="1">
          <mxGeometry x="250" y="675" width="10" height="10" as="geometry" />
        </mxCell>
        <mxCell id="v5fSAzi9pscg0SWZ9pVq-29" value="" style="endArrow=none;html=1;rounded=0;sketch=1;strokeColor=#67AB9F;dashed=1;" parent="1" target="v5fSAzi9pscg0SWZ9pVq-28" edge="1">
          <mxGeometry width="50" height="50" relative="1" as="geometry">
            <mxPoint x="160" y="680" as="sourcePoint" />
            <mxPoint x="800" y="680" as="targetPoint" />
          </mxGeometry>
        </mxCell>
        <mxCell id="v5fSAzi9pscg0SWZ9pVq-52" style="edgeStyle=none;rounded=0;sketch=1;orthogonalLoop=1;jettySize=auto;html=1;entryX=0.5;entryY=0;entryDx=0;entryDy=0;fontFamily=Comic Sans MS;fontColor=#67AB9F;strokeColor=#67AB9F;strokeWidth=3;exitX=0.5;exitY=1;exitDx=0;exitDy=0;" parent="1" source="pwtdmJZ13lkaDZG3rlrT-9" target="v5fSAzi9pscg0SWZ9pVq-49" edge="1">
          <mxGeometry relative="1" as="geometry" />
        </mxCell>
        <mxCell id="v5fSAzi9pscg0SWZ9pVq-55" value="&lt;font color=&quot;#000000&quot;&gt;Checkout&lt;/font&gt;" style="edgeLabel;html=1;align=center;verticalAlign=middle;resizable=0;points=[];fontFamily=Comic Sans MS;fontColor=#67AB9F;" parent="v5fSAzi9pscg0SWZ9pVq-52" vertex="1" connectable="0">
          <mxGeometry x="-0.0318" y="-4" relative="1" as="geometry">
            <mxPoint y="-1" as="offset" />
          </mxGeometry>
        </mxCell>
        <mxCell id="v5fSAzi9pscg0SWZ9pVq-32" value="" style="ellipse;shape=doubleEllipse;whiteSpace=wrap;html=1;aspect=fixed;sketch=1;fontFamily=Comic Sans MS;fillColor=#67AB9F;strokeColor=#67AB9F;" parent="1" vertex="1">
          <mxGeometry x="250" y="910" width="10" height="10" as="geometry" />
        </mxCell>
        <mxCell id="v5fSAzi9pscg0SWZ9pVq-78" style="edgeStyle=none;rounded=0;sketch=1;orthogonalLoop=1;jettySize=auto;html=1;fontFamily=Comic Sans MS;fontColor=#000000;strokeColor=#B5739D;strokeWidth=3;" parent="1" source="v5fSAzi9pscg0SWZ9pVq-38" edge="1">
          <mxGeometry relative="1" as="geometry">
            <mxPoint x="360" y="960" as="targetPoint" />
          </mxGeometry>
        </mxCell>
        <mxCell id="v5fSAzi9pscg0SWZ9pVq-79" value="Pull" style="edgeLabel;html=1;align=center;verticalAlign=middle;resizable=0;points=[];fontFamily=Comic Sans MS;fontColor=#000000;" parent="v5fSAzi9pscg0SWZ9pVq-78" vertex="1" connectable="0">
          <mxGeometry x="0.4203" relative="1" as="geometry">
            <mxPoint as="offset" />
          </mxGeometry>
        </mxCell>
        <mxCell id="v5fSAzi9pscg0SWZ9pVq-114" style="edgeStyle=none;rounded=0;sketch=1;orthogonalLoop=1;jettySize=auto;html=1;fontFamily=Comic Sans MS;fontColor=#000000;strokeColor=#B5739D;strokeWidth=3;" parent="1" source="v5fSAzi9pscg0SWZ9pVq-38" edge="1">
          <mxGeometry relative="1" as="geometry">
            <mxPoint x="430" y="560" as="targetPoint" />
          </mxGeometry>
        </mxCell>
        <mxCell id="v5fSAzi9pscg0SWZ9pVq-38" value="" style="ellipse;shape=doubleEllipse;whiteSpace=wrap;html=1;aspect=fixed;sketch=1;fontFamily=Comic Sans MS;fillColor=#B5739D;strokeColor=#B5739D;" parent="1" vertex="1">
          <mxGeometry x="350" y="555" width="10" height="10" as="geometry" />
        </mxCell>
        <mxCell id="v5fSAzi9pscg0SWZ9pVq-39" value="" style="endArrow=none;html=1;rounded=0;sketch=1;strokeColor=#B5739D;dashed=1;startArrow=none;" parent="1" source="v5fSAzi9pscg0SWZ9pVq-83" target="v5fSAzi9pscg0SWZ9pVq-38" edge="1">
          <mxGeometry width="50" height="50" relative="1" as="geometry">
            <mxPoint x="160" y="560" as="sourcePoint" />
            <mxPoint x="800" y="560" as="targetPoint" />
          </mxGeometry>
        </mxCell>
        <mxCell id="v5fSAzi9pscg0SWZ9pVq-40" value="" style="endArrow=none;html=1;rounded=0;sketch=1;strokeColor=#FF6666;fillColor=#ffe6cc;dashed=1;" parent="1" edge="1">
          <mxGeometry width="50" height="50" relative="1" as="geometry">
            <mxPoint x="160" y="760" as="sourcePoint" />
            <mxPoint x="800" y="760" as="targetPoint" />
          </mxGeometry>
        </mxCell>
        <mxCell id="v5fSAzi9pscg0SWZ9pVq-41" value="Hotfix" style="text;html=1;align=center;verticalAlign=middle;resizable=0;points=[];autosize=1;strokeColor=none;fillColor=#FF6666;fontFamily=Comic Sans MS;" parent="1" vertex="1">
          <mxGeometry x="95" y="750" width="50" height="20" as="geometry" />
        </mxCell>
        <mxCell id="v5fSAzi9pscg0SWZ9pVq-42" value="&lt;font color=&quot;#000000&quot;&gt;Fork&lt;/font&gt;" style="edgeLabel;html=1;align=center;verticalAlign=middle;resizable=0;points=[];fontFamily=Comic Sans MS;fontColor=#67AB9F;" parent="1" vertex="1" connectable="0">
          <mxGeometry x="240.00465531220968" y="629.9991998677125" as="geometry" />
        </mxCell>
        <mxCell id="v5fSAzi9pscg0SWZ9pVq-43" value="" style="endArrow=none;html=1;rounded=0;sketch=1;strokeColor=#FF6666;fillColor=#ffe6cc;dashed=1;" parent="1" edge="1">
          <mxGeometry width="50" height="50" relative="1" as="geometry">
            <mxPoint x="160" y="1000" as="sourcePoint" />
            <mxPoint x="800" y="1000" as="targetPoint" />
          </mxGeometry>
        </mxCell>
        <mxCell id="v5fSAzi9pscg0SWZ9pVq-44" value="Hotfix" style="text;html=1;align=center;verticalAlign=middle;resizable=0;points=[];autosize=1;strokeColor=none;fillColor=#FF6666;fontFamily=Comic Sans MS;" parent="1" vertex="1">
          <mxGeometry x="95" y="990" width="50" height="20" as="geometry" />
        </mxCell>
        <mxCell id="v5fSAzi9pscg0SWZ9pVq-86" style="edgeStyle=none;rounded=0;sketch=1;orthogonalLoop=1;jettySize=auto;html=1;fontFamily=Comic Sans MS;fontColor=#000000;strokeColor=#67AB9F;strokeWidth=3;" parent="1" source="v5fSAzi9pscg0SWZ9pVq-27" edge="1">
          <mxGeometry relative="1" as="geometry">
            <mxPoint x="290" y="520" as="targetPoint" />
          </mxGeometry>
        </mxCell>
        <mxCell id="v5fSAzi9pscg0SWZ9pVq-27" value="" style="ellipse;shape=doubleEllipse;whiteSpace=wrap;html=1;aspect=fixed;sketch=1;fontFamily=Comic Sans MS;fillColor=#67AB9F;strokeColor=#67AB9F;" parent="1" vertex="1">
          <mxGeometry x="230" y="515" width="10" height="10" as="geometry" />
        </mxCell>
        <mxCell id="v5fSAzi9pscg0SWZ9pVq-46" value="" style="endArrow=none;html=1;rounded=0;sketch=1;strokeColor=#67AB9F;dashed=1;startArrow=none;" parent="1" target="v5fSAzi9pscg0SWZ9pVq-27" edge="1" source="pwtdmJZ13lkaDZG3rlrT-1">
          <mxGeometry width="50" height="50" relative="1" as="geometry">
            <mxPoint x="160" y="520" as="sourcePoint" />
            <mxPoint x="800" y="520" as="targetPoint" />
          </mxGeometry>
        </mxCell>
        <mxCell id="v5fSAzi9pscg0SWZ9pVq-47" value="" style="ellipse;shape=doubleEllipse;whiteSpace=wrap;html=1;aspect=fixed;sketch=1;fontFamily=Comic Sans MS;fillColor=#FF6666;strokeColor=#FF6666;" parent="1" vertex="1">
          <mxGeometry x="690" y="595" width="10" height="10" as="geometry" />
        </mxCell>
        <mxCell id="v5fSAzi9pscg0SWZ9pVq-48" value="" style="endArrow=none;html=1;rounded=0;sketch=1;strokeColor=#FF6666;fillColor=#ffe6cc;dashed=1;" parent="1" target="v5fSAzi9pscg0SWZ9pVq-47" edge="1">
          <mxGeometry width="50" height="50" relative="1" as="geometry">
            <mxPoint x="160" y="600" as="sourcePoint" />
            <mxPoint x="800" y="600" as="targetPoint" />
          </mxGeometry>
        </mxCell>
        <mxCell id="v5fSAzi9pscg0SWZ9pVq-64" style="edgeStyle=none;rounded=0;sketch=1;orthogonalLoop=1;jettySize=auto;html=1;entryX=0;entryY=0.5;entryDx=0;entryDy=0;fontFamily=Comic Sans MS;fontColor=#000000;strokeColor=#FFCE9F;strokeWidth=4;" parent="1" source="v5fSAzi9pscg0SWZ9pVq-49" target="v5fSAzi9pscg0SWZ9pVq-56" edge="1">
          <mxGeometry relative="1" as="geometry" />
        </mxCell>
        <mxCell id="v5fSAzi9pscg0SWZ9pVq-74" style="edgeStyle=none;rounded=0;sketch=1;orthogonalLoop=1;jettySize=auto;html=1;entryX=0.5;entryY=1;entryDx=0;entryDy=0;fontFamily=Comic Sans MS;fontColor=#000000;strokeColor=#FFCE9F;strokeWidth=3;" parent="1" source="v5fSAzi9pscg0SWZ9pVq-49" target="v5fSAzi9pscg0SWZ9pVq-68" edge="1">
          <mxGeometry relative="1" as="geometry" />
        </mxCell>
        <mxCell id="v5fSAzi9pscg0SWZ9pVq-49" value="" style="ellipse;shape=doubleEllipse;whiteSpace=wrap;html=1;aspect=fixed;sketch=1;fontFamily=Comic Sans MS;fillColor=#FFCE9F;strokeColor=#FFCE9F;" parent="1" vertex="1">
          <mxGeometry x="310" y="1035" width="10" height="10" as="geometry" />
        </mxCell>
        <mxCell id="v5fSAzi9pscg0SWZ9pVq-66" style="edgeStyle=none;rounded=0;sketch=1;orthogonalLoop=1;jettySize=auto;html=1;entryX=0;entryY=0.5;entryDx=0;entryDy=0;fontFamily=Comic Sans MS;fontColor=#000000;strokeColor=#FFCE9F;strokeWidth=4;" parent="1" source="v5fSAzi9pscg0SWZ9pVq-56" target="v5fSAzi9pscg0SWZ9pVq-58" edge="1">
          <mxGeometry relative="1" as="geometry" />
        </mxCell>
        <mxCell id="v5fSAzi9pscg0SWZ9pVq-56" value="" style="ellipse;shape=doubleEllipse;whiteSpace=wrap;html=1;aspect=fixed;sketch=1;fontFamily=Comic Sans MS;fillColor=#FFCE9F;strokeColor=#FFCE9F;" parent="1" vertex="1">
          <mxGeometry x="380" y="1035" width="10" height="10" as="geometry" />
        </mxCell>
        <mxCell id="v5fSAzi9pscg0SWZ9pVq-57" value="" style="endArrow=none;html=1;rounded=0;sketch=1;strokeColor=#d79b00;fillColor=#ffe6cc;dashed=1;" parent="1" target="v5fSAzi9pscg0SWZ9pVq-56" edge="1">
          <mxGeometry width="50" height="50" relative="1" as="geometry">
            <mxPoint x="160" y="1040" as="sourcePoint" />
            <mxPoint x="800" y="1040" as="targetPoint" />
          </mxGeometry>
        </mxCell>
        <mxCell id="v5fSAzi9pscg0SWZ9pVq-67" style="edgeStyle=none;rounded=0;sketch=1;orthogonalLoop=1;jettySize=auto;html=1;entryX=0;entryY=0.5;entryDx=0;entryDy=0;fontFamily=Comic Sans MS;fontColor=#000000;strokeColor=#FFCE9F;strokeWidth=4;" parent="1" source="v5fSAzi9pscg0SWZ9pVq-58" target="v5fSAzi9pscg0SWZ9pVq-60" edge="1">
          <mxGeometry relative="1" as="geometry" />
        </mxCell>
        <mxCell id="v5fSAzi9pscg0SWZ9pVq-58" value="" style="ellipse;shape=doubleEllipse;whiteSpace=wrap;html=1;aspect=fixed;sketch=1;fontFamily=Comic Sans MS;fillColor=#FFCE9F;strokeColor=#FFCE9F;" parent="1" vertex="1">
          <mxGeometry x="440" y="1035" width="10" height="10" as="geometry" />
        </mxCell>
        <mxCell id="v5fSAzi9pscg0SWZ9pVq-59" value="" style="endArrow=none;html=1;rounded=0;sketch=1;strokeColor=#d79b00;fillColor=#ffe6cc;dashed=1;startArrow=none;" parent="1" source="v5fSAzi9pscg0SWZ9pVq-56" target="v5fSAzi9pscg0SWZ9pVq-58" edge="1">
          <mxGeometry width="50" height="50" relative="1" as="geometry">
            <mxPoint x="390" y="1040" as="sourcePoint" />
            <mxPoint x="800" y="1040" as="targetPoint" />
          </mxGeometry>
        </mxCell>
        <mxCell id="v5fSAzi9pscg0SWZ9pVq-60" value="" style="ellipse;shape=doubleEllipse;whiteSpace=wrap;html=1;aspect=fixed;sketch=1;fontFamily=Comic Sans MS;fillColor=#FFCE9F;strokeColor=#FFCE9F;" parent="1" vertex="1">
          <mxGeometry x="510" y="1035" width="10" height="10" as="geometry" />
        </mxCell>
        <mxCell id="v5fSAzi9pscg0SWZ9pVq-61" value="" style="endArrow=none;html=1;rounded=0;sketch=1;strokeColor=#d79b00;fillColor=#ffe6cc;dashed=1;startArrow=none;" parent="1" source="v5fSAzi9pscg0SWZ9pVq-58" target="v5fSAzi9pscg0SWZ9pVq-60" edge="1">
          <mxGeometry width="50" height="50" relative="1" as="geometry">
            <mxPoint x="450" y="1040" as="sourcePoint" />
            <mxPoint x="800" y="1040" as="targetPoint" />
          </mxGeometry>
        </mxCell>
        <mxCell id="v5fSAzi9pscg0SWZ9pVq-89" style="edgeStyle=none;rounded=0;sketch=1;orthogonalLoop=1;jettySize=auto;html=1;fontFamily=Comic Sans MS;fontColor=#000000;strokeColor=#67AB9F;strokeWidth=3;" parent="1" source="v5fSAzi9pscg0SWZ9pVq-62" edge="1">
          <mxGeometry relative="1" as="geometry">
            <mxPoint x="360" y="520" as="targetPoint" />
          </mxGeometry>
        </mxCell>
        <mxCell id="v5fSAzi9pscg0SWZ9pVq-62" value="" style="ellipse;shape=doubleEllipse;whiteSpace=wrap;html=1;aspect=fixed;sketch=1;fontFamily=Comic Sans MS;fillColor=#67AB9F;strokeColor=#67AB9F;" parent="1" vertex="1">
          <mxGeometry x="290" y="515" width="10" height="10" as="geometry" />
        </mxCell>
        <mxCell id="v5fSAzi9pscg0SWZ9pVq-63" value="" style="endArrow=none;html=1;rounded=0;sketch=1;strokeColor=#67AB9F;startArrow=none;dashed=1;" parent="1" source="v5fSAzi9pscg0SWZ9pVq-27" target="v5fSAzi9pscg0SWZ9pVq-62" edge="1">
          <mxGeometry width="50" height="50" relative="1" as="geometry">
            <mxPoint x="240" y="520" as="sourcePoint" />
            <mxPoint x="800" y="520" as="targetPoint" />
          </mxGeometry>
        </mxCell>
        <mxCell id="v5fSAzi9pscg0SWZ9pVq-96" style="edgeStyle=none;rounded=0;sketch=1;orthogonalLoop=1;jettySize=auto;html=1;fontFamily=Comic Sans MS;fontColor=#000000;strokeColor=#B5739D;strokeWidth=3;dashed=1;" parent="1" source="v5fSAzi9pscg0SWZ9pVq-68" edge="1">
          <mxGeometry relative="1" as="geometry">
            <mxPoint x="430" y="960" as="targetPoint" />
          </mxGeometry>
        </mxCell>
        <mxCell id="v5fSAzi9pscg0SWZ9pVq-102" value="Cherry Pick/Conflict Solve" style="edgeLabel;html=1;align=center;verticalAlign=middle;resizable=0;points=[];fontFamily=Comic Sans MS;fontColor=#000000;" parent="v5fSAzi9pscg0SWZ9pVq-96" vertex="1" connectable="0">
          <mxGeometry x="0.1545" relative="1" as="geometry">
            <mxPoint as="offset" />
          </mxGeometry>
        </mxCell>
        <mxCell id="v5fSAzi9pscg0SWZ9pVq-116" style="edgeStyle=none;rounded=0;sketch=1;orthogonalLoop=1;jettySize=auto;html=1;fontFamily=Comic Sans MS;fontColor=#000000;strokeColor=#67AB9F;strokeWidth=3;dashed=1;" parent="1" source="v5fSAzi9pscg0SWZ9pVq-68" edge="1">
          <mxGeometry relative="1" as="geometry">
            <mxPoint x="630" y="920" as="targetPoint" />
          </mxGeometry>
        </mxCell>
        <mxCell id="v5fSAzi9pscg0SWZ9pVq-122" value="Cherry Pick" style="edgeLabel;html=1;align=center;verticalAlign=middle;resizable=0;points=[];fontFamily=Comic Sans MS;fontColor=#000000;" parent="v5fSAzi9pscg0SWZ9pVq-116" vertex="1" connectable="0">
          <mxGeometry x="0.2584" y="1" relative="1" as="geometry">
            <mxPoint as="offset" />
          </mxGeometry>
        </mxCell>
        <mxCell id="v5fSAzi9pscg0SWZ9pVq-68" value="" style="ellipse;shape=doubleEllipse;whiteSpace=wrap;html=1;aspect=fixed;sketch=1;fontFamily=Comic Sans MS;fillColor=#FFCE9F;strokeColor=#FFCE9F;" parent="1" vertex="1">
          <mxGeometry x="445" y="1090" width="10" height="10" as="geometry" />
        </mxCell>
        <mxCell id="v5fSAzi9pscg0SWZ9pVq-69" value="" style="shape=curlyBracket;whiteSpace=wrap;html=1;rounded=1;sketch=1;fontFamily=Comic Sans MS;fontColor=#000000;strokeColor=#000000;fillColor=#000000;rotation=-90;" parent="1" vertex="1">
          <mxGeometry x="440" y="1000" width="20" height="120" as="geometry" />
        </mxCell>
        <mxCell id="v5fSAzi9pscg0SWZ9pVq-72" value="rebase" style="text;html=1;align=center;verticalAlign=middle;resizable=0;points=[];autosize=1;strokeColor=none;fillColor=none;fontFamily=Comic Sans MS;fontColor=#000000;" parent="1" vertex="1">
          <mxGeometry x="395" y="1060" width="50" height="20" as="geometry" />
        </mxCell>
        <mxCell id="v5fSAzi9pscg0SWZ9pVq-77" value="" style="endArrow=none;html=1;rounded=0;sketch=1;strokeColor=#d79b00;fillColor=#ffe6cc;dashed=1;" parent="1" edge="1">
          <mxGeometry width="50" height="50" relative="1" as="geometry">
            <mxPoint x="160" y="1100" as="sourcePoint" />
            <mxPoint x="800" y="1100" as="targetPoint" />
          </mxGeometry>
        </mxCell>
        <mxCell id="v5fSAzi9pscg0SWZ9pVq-80" value="Fork" style="endArrow=classic;html=1;rounded=0;sketch=1;fontFamily=Comic Sans MS;fontColor=#000000;strokeColor=#B3B3B3;strokeWidth=3;" parent="1" edge="1">
          <mxGeometry width="50" height="50" relative="1" as="geometry">
            <mxPoint x="40" y="590" as="sourcePoint" />
            <mxPoint x="40" y="700" as="targetPoint" />
          </mxGeometry>
        </mxCell>
        <mxCell id="v5fSAzi9pscg0SWZ9pVq-81" value="Clone" style="endArrow=classic;html=1;rounded=0;sketch=1;fontFamily=Comic Sans MS;fontColor=#000000;strokeColor=#B3B3B3;strokeWidth=3;" parent="1" edge="1">
          <mxGeometry width="50" height="50" relative="1" as="geometry">
            <mxPoint x="39.5" y="739.5" as="sourcePoint" />
            <mxPoint x="40" y="940" as="targetPoint" />
          </mxGeometry>
        </mxCell>
        <mxCell id="v5fSAzi9pscg0SWZ9pVq-82" value="Fetch" style="endArrow=classic;html=1;rounded=0;sketch=1;fontFamily=Comic Sans MS;fontColor=#000000;strokeColor=#B3B3B3;strokeWidth=3;" parent="1" edge="1">
          <mxGeometry width="50" height="50" relative="1" as="geometry">
            <mxPoint x="15" y="580" as="sourcePoint" />
            <mxPoint x="15" y="950" as="targetPoint" />
          </mxGeometry>
        </mxCell>
        <mxCell id="v5fSAzi9pscg0SWZ9pVq-85" style="edgeStyle=none;rounded=0;sketch=1;orthogonalLoop=1;jettySize=auto;html=1;fontFamily=Comic Sans MS;fontColor=#000000;strokeColor=#B5739D;strokeWidth=3;" parent="1" source="v5fSAzi9pscg0SWZ9pVq-83" edge="1">
          <mxGeometry relative="1" as="geometry">
            <mxPoint x="350" y="560" as="targetPoint" />
          </mxGeometry>
        </mxCell>
        <mxCell id="v5fSAzi9pscg0SWZ9pVq-83" value="" style="ellipse;shape=doubleEllipse;whiteSpace=wrap;html=1;aspect=fixed;sketch=1;fontFamily=Comic Sans MS;fillColor=#B5739D;strokeColor=#B5739D;" parent="1" vertex="1">
          <mxGeometry x="290" y="555" width="10" height="10" as="geometry" />
        </mxCell>
        <mxCell id="v5fSAzi9pscg0SWZ9pVq-84" value="" style="endArrow=none;html=1;rounded=0;sketch=1;strokeColor=#B5739D;dashed=1;" parent="1" target="v5fSAzi9pscg0SWZ9pVq-83" edge="1">
          <mxGeometry width="50" height="50" relative="1" as="geometry">
            <mxPoint x="160" y="560" as="sourcePoint" />
            <mxPoint x="350" y="560" as="targetPoint" />
          </mxGeometry>
        </mxCell>
        <mxCell id="v5fSAzi9pscg0SWZ9pVq-94" style="edgeStyle=none;rounded=0;sketch=1;orthogonalLoop=1;jettySize=auto;html=1;entryX=0;entryY=0.5;entryDx=0;entryDy=0;fontFamily=Comic Sans MS;fontColor=#000000;strokeColor=#67AB9F;strokeWidth=3;" parent="1" source="v5fSAzi9pscg0SWZ9pVq-87" target="v5fSAzi9pscg0SWZ9pVq-90" edge="1">
          <mxGeometry relative="1" as="geometry" />
        </mxCell>
        <mxCell id="v5fSAzi9pscg0SWZ9pVq-87" value="" style="ellipse;shape=doubleEllipse;whiteSpace=wrap;html=1;aspect=fixed;sketch=1;fontFamily=Comic Sans MS;fillColor=#67AB9F;strokeColor=#67AB9F;" parent="1" vertex="1">
          <mxGeometry x="360" y="515" width="10" height="10" as="geometry" />
        </mxCell>
        <mxCell id="v5fSAzi9pscg0SWZ9pVq-88" value="" style="endArrow=none;html=1;rounded=0;sketch=1;strokeColor=#67AB9F;startArrow=none;dashed=1;" parent="1" source="v5fSAzi9pscg0SWZ9pVq-62" target="v5fSAzi9pscg0SWZ9pVq-87" edge="1">
          <mxGeometry width="50" height="50" relative="1" as="geometry">
            <mxPoint x="300" y="520" as="sourcePoint" />
            <mxPoint x="800" y="520" as="targetPoint" />
          </mxGeometry>
        </mxCell>
        <mxCell id="v5fSAzi9pscg0SWZ9pVq-95" style="edgeStyle=none;rounded=0;sketch=1;orthogonalLoop=1;jettySize=auto;html=1;fontFamily=Comic Sans MS;fontColor=#000000;strokeColor=#67AB9F;strokeWidth=3;" parent="1" source="v5fSAzi9pscg0SWZ9pVq-90" edge="1">
          <mxGeometry relative="1" as="geometry">
            <mxPoint x="520" y="520" as="targetPoint" />
          </mxGeometry>
        </mxCell>
        <mxCell id="v5fSAzi9pscg0SWZ9pVq-90" value="" style="ellipse;shape=doubleEllipse;whiteSpace=wrap;html=1;aspect=fixed;sketch=1;fontFamily=Comic Sans MS;fillColor=#67AB9F;strokeColor=#67AB9F;" parent="1" vertex="1">
          <mxGeometry x="435" y="515" width="10" height="10" as="geometry" />
        </mxCell>
        <mxCell id="v5fSAzi9pscg0SWZ9pVq-91" value="" style="endArrow=none;html=1;rounded=0;sketch=1;strokeColor=#67AB9F;startArrow=none;dashed=1;" parent="1" source="v5fSAzi9pscg0SWZ9pVq-87" target="v5fSAzi9pscg0SWZ9pVq-90" edge="1">
          <mxGeometry width="50" height="50" relative="1" as="geometry">
            <mxPoint x="370" y="520" as="sourcePoint" />
            <mxPoint x="800" y="520" as="targetPoint" />
          </mxGeometry>
        </mxCell>
        <mxCell id="v5fSAzi9pscg0SWZ9pVq-103" style="edgeStyle=none;rounded=0;sketch=1;orthogonalLoop=1;jettySize=auto;html=1;fontFamily=Comic Sans MS;fontColor=#000000;strokeColor=#67AB9F;strokeWidth=3;entryX=0.5;entryY=0;entryDx=0;entryDy=0;" parent="1" source="v5fSAzi9pscg0SWZ9pVq-92" target="v5fSAzi9pscg0SWZ9pVq-117" edge="1">
          <mxGeometry relative="1" as="geometry">
            <mxPoint x="550" y="920" as="targetPoint" />
          </mxGeometry>
        </mxCell>
        <mxCell id="v5fSAzi9pscg0SWZ9pVq-115" value="Pull" style="edgeLabel;html=1;align=center;verticalAlign=middle;resizable=0;points=[];fontFamily=Comic Sans MS;fontColor=#000000;" parent="v5fSAzi9pscg0SWZ9pVq-103" vertex="1" connectable="0">
          <mxGeometry x="0.5448" y="2" relative="1" as="geometry">
            <mxPoint y="10" as="offset" />
          </mxGeometry>
        </mxCell>
        <mxCell id="v5fSAzi9pscg0SWZ9pVq-134" style="edgeStyle=none;rounded=0;sketch=1;orthogonalLoop=1;jettySize=auto;html=1;entryX=0;entryY=0;entryDx=0;entryDy=0;fontFamily=Comic Sans MS;fontColor=#000000;strokeColor=#67AB9F;strokeWidth=3;" parent="1" source="v5fSAzi9pscg0SWZ9pVq-92" target="v5fSAzi9pscg0SWZ9pVq-131" edge="1">
          <mxGeometry relative="1" as="geometry" />
        </mxCell>
        <mxCell id="v5fSAzi9pscg0SWZ9pVq-92" value="" style="ellipse;shape=doubleEllipse;whiteSpace=wrap;html=1;aspect=fixed;sketch=1;fontFamily=Comic Sans MS;fillColor=#67AB9F;strokeColor=#67AB9F;" parent="1" vertex="1">
          <mxGeometry x="520" y="515" width="10" height="10" as="geometry" />
        </mxCell>
        <mxCell id="v5fSAzi9pscg0SWZ9pVq-93" value="" style="endArrow=none;html=1;rounded=0;sketch=1;strokeColor=#67AB9F;startArrow=none;dashed=1;" parent="1" source="v5fSAzi9pscg0SWZ9pVq-90" target="v5fSAzi9pscg0SWZ9pVq-92" edge="1">
          <mxGeometry width="50" height="50" relative="1" as="geometry">
            <mxPoint x="445" y="520" as="sourcePoint" />
            <mxPoint x="800" y="520" as="targetPoint" />
          </mxGeometry>
        </mxCell>
        <mxCell id="v5fSAzi9pscg0SWZ9pVq-105" style="edgeStyle=none;rounded=0;sketch=1;orthogonalLoop=1;jettySize=auto;html=1;entryX=0;entryY=1;entryDx=0;entryDy=0;fontFamily=Comic Sans MS;fontColor=#000000;strokeColor=#B5739D;strokeWidth=3;" parent="1" source="v5fSAzi9pscg0SWZ9pVq-97" target="v5fSAzi9pscg0SWZ9pVq-99" edge="1">
          <mxGeometry relative="1" as="geometry" />
        </mxCell>
        <mxCell id="v5fSAzi9pscg0SWZ9pVq-97" value="" style="ellipse;shape=doubleEllipse;whiteSpace=wrap;html=1;aspect=fixed;sketch=1;fontFamily=Comic Sans MS;fillColor=#B5739D;strokeColor=#B5739D;" parent="1" vertex="1">
          <mxGeometry x="360" y="955" width="10" height="10" as="geometry" />
        </mxCell>
        <mxCell id="v5fSAzi9pscg0SWZ9pVq-98" value="" style="endArrow=none;html=1;rounded=0;sketch=1;strokeColor=#B5739D;dashed=1;" parent="1" target="v5fSAzi9pscg0SWZ9pVq-97" edge="1">
          <mxGeometry width="50" height="50" relative="1" as="geometry">
            <mxPoint x="160" y="960" as="sourcePoint" />
            <mxPoint x="800" y="960" as="targetPoint" />
          </mxGeometry>
        </mxCell>
        <mxCell id="v5fSAzi9pscg0SWZ9pVq-106" style="edgeStyle=none;rounded=0;sketch=1;orthogonalLoop=1;jettySize=auto;html=1;fontFamily=Comic Sans MS;fontColor=#000000;strokeColor=#B5739D;strokeWidth=3;" parent="1" source="v5fSAzi9pscg0SWZ9pVq-99" edge="1">
          <mxGeometry relative="1" as="geometry">
            <mxPoint x="430" y="720" as="targetPoint" />
          </mxGeometry>
        </mxCell>
        <mxCell id="v5fSAzi9pscg0SWZ9pVq-109" value="Push -u" style="edgeLabel;html=1;align=center;verticalAlign=middle;resizable=0;points=[];fontFamily=Comic Sans MS;fontColor=#000000;" parent="v5fSAzi9pscg0SWZ9pVq-106" vertex="1" connectable="0">
          <mxGeometry x="-0.1217" y="-2" relative="1" as="geometry">
            <mxPoint as="offset" />
          </mxGeometry>
        </mxCell>
        <mxCell id="v5fSAzi9pscg0SWZ9pVq-99" value="" style="ellipse;shape=doubleEllipse;whiteSpace=wrap;html=1;aspect=fixed;sketch=1;fontFamily=Comic Sans MS;fillColor=#FFCE9F;strokeColor=#FFCE9F;" parent="1" vertex="1">
          <mxGeometry x="425" y="950" width="10" height="10" as="geometry" />
        </mxCell>
        <mxCell id="v5fSAzi9pscg0SWZ9pVq-110" style="edgeStyle=none;rounded=0;sketch=1;orthogonalLoop=1;jettySize=auto;html=1;fontFamily=Comic Sans MS;fontColor=#000000;strokeColor=#B5739D;strokeWidth=3;" parent="1" source="v5fSAzi9pscg0SWZ9pVq-107" edge="1">
          <mxGeometry relative="1" as="geometry">
            <mxPoint x="430" y="560" as="targetPoint" />
          </mxGeometry>
        </mxCell>
        <mxCell id="v5fSAzi9pscg0SWZ9pVq-113" value="Merge Request" style="edgeLabel;html=1;align=center;verticalAlign=middle;resizable=0;points=[];fontFamily=Comic Sans MS;fontColor=#000000;" parent="v5fSAzi9pscg0SWZ9pVq-110" vertex="1" connectable="0">
          <mxGeometry x="-0.0452" y="3" relative="1" as="geometry">
            <mxPoint as="offset" />
          </mxGeometry>
        </mxCell>
        <mxCell id="v5fSAzi9pscg0SWZ9pVq-107" value="" style="ellipse;shape=doubleEllipse;whiteSpace=wrap;html=1;aspect=fixed;sketch=1;fontFamily=Comic Sans MS;fillColor=#B5739D;strokeColor=#B5739D;" parent="1" vertex="1">
          <mxGeometry x="425" y="715" width="10" height="10" as="geometry" />
        </mxCell>
        <mxCell id="v5fSAzi9pscg0SWZ9pVq-108" value="" style="endArrow=none;html=1;rounded=0;sketch=1;strokeColor=#B5739D;dashed=1;" parent="1" target="v5fSAzi9pscg0SWZ9pVq-107" edge="1">
          <mxGeometry width="50" height="50" relative="1" as="geometry">
            <mxPoint x="160" y="720" as="sourcePoint" />
            <mxPoint x="800" y="720" as="targetPoint" />
          </mxGeometry>
        </mxCell>
        <mxCell id="v5fSAzi9pscg0SWZ9pVq-111" value="" style="ellipse;shape=doubleEllipse;whiteSpace=wrap;html=1;aspect=fixed;sketch=1;fontFamily=Comic Sans MS;fillColor=#B5739D;strokeColor=#B5739D;" parent="1" vertex="1">
          <mxGeometry x="425" y="555" width="10" height="10" as="geometry" />
        </mxCell>
        <mxCell id="v5fSAzi9pscg0SWZ9pVq-112" value="" style="endArrow=none;html=1;rounded=0;sketch=1;strokeColor=#B5739D;startArrow=none;dashed=1;" parent="1" source="v5fSAzi9pscg0SWZ9pVq-38" target="v5fSAzi9pscg0SWZ9pVq-111" edge="1">
          <mxGeometry width="50" height="50" relative="1" as="geometry">
            <mxPoint x="360" y="560" as="sourcePoint" />
            <mxPoint x="800" y="560" as="targetPoint" />
          </mxGeometry>
        </mxCell>
        <mxCell id="v5fSAzi9pscg0SWZ9pVq-130" style="edgeStyle=none;rounded=0;sketch=1;orthogonalLoop=1;jettySize=auto;html=1;fontFamily=Comic Sans MS;fontColor=#000000;strokeColor=#67AB9F;strokeWidth=3;" parent="1" source="v5fSAzi9pscg0SWZ9pVq-117" edge="1">
          <mxGeometry relative="1" as="geometry">
            <mxPoint x="620" y="915" as="targetPoint" />
          </mxGeometry>
        </mxCell>
        <mxCell id="v5fSAzi9pscg0SWZ9pVq-117" value="" style="ellipse;shape=doubleEllipse;whiteSpace=wrap;html=1;aspect=fixed;sketch=1;fontFamily=Comic Sans MS;fillColor=#67AB9F;strokeColor=#67AB9F;" parent="1" vertex="1">
          <mxGeometry x="550" y="910" width="10" height="10" as="geometry" />
        </mxCell>
        <mxCell id="v5fSAzi9pscg0SWZ9pVq-125" style="edgeStyle=none;rounded=0;sketch=1;orthogonalLoop=1;jettySize=auto;html=1;fontFamily=Comic Sans MS;fontColor=#000000;strokeColor=#67AB9F;strokeWidth=3;entryX=0.5;entryY=1;entryDx=0;entryDy=0;" parent="1" source="v5fSAzi9pscg0SWZ9pVq-123" target="v5fSAzi9pscg0SWZ9pVq-126" edge="1">
          <mxGeometry relative="1" as="geometry">
            <mxPoint x="630" y="680" as="targetPoint" />
          </mxGeometry>
        </mxCell>
        <mxCell id="v5fSAzi9pscg0SWZ9pVq-128" value="Push" style="edgeLabel;html=1;align=center;verticalAlign=middle;resizable=0;points=[];fontFamily=Comic Sans MS;fontColor=#000000;" parent="v5fSAzi9pscg0SWZ9pVq-125" vertex="1" connectable="0">
          <mxGeometry x="-0.3652" y="-1" relative="1" as="geometry">
            <mxPoint as="offset" />
          </mxGeometry>
        </mxCell>
        <mxCell id="v5fSAzi9pscg0SWZ9pVq-123" value="" style="ellipse;shape=doubleEllipse;whiteSpace=wrap;html=1;aspect=fixed;sketch=1;fontFamily=Comic Sans MS;fillColor=#FFCE9F;strokeColor=#FFCE9F;" parent="1" vertex="1">
          <mxGeometry x="620" y="910" width="10" height="10" as="geometry" />
        </mxCell>
        <mxCell id="v5fSAzi9pscg0SWZ9pVq-124" value="" style="endArrow=none;html=1;rounded=0;sketch=1;strokeColor=#67AB9F;dashed=1;" parent="1" target="v5fSAzi9pscg0SWZ9pVq-123" edge="1">
          <mxGeometry width="50" height="50" relative="1" as="geometry">
            <mxPoint x="160" y="920" as="sourcePoint" />
            <mxPoint x="800" y="920" as="targetPoint" />
          </mxGeometry>
        </mxCell>
        <mxCell id="v5fSAzi9pscg0SWZ9pVq-133" style="edgeStyle=none;rounded=0;sketch=1;orthogonalLoop=1;jettySize=auto;html=1;entryX=1;entryY=1;entryDx=0;entryDy=0;fontFamily=Comic Sans MS;fontColor=#000000;strokeColor=#67AB9F;strokeWidth=3;" parent="1" source="v5fSAzi9pscg0SWZ9pVq-126" target="v5fSAzi9pscg0SWZ9pVq-131" edge="1">
          <mxGeometry relative="1" as="geometry" />
        </mxCell>
        <mxCell id="v5fSAzi9pscg0SWZ9pVq-135" value="Merge Request" style="edgeLabel;html=1;align=center;verticalAlign=middle;resizable=0;points=[];fontFamily=Comic Sans MS;fontColor=#000000;" parent="v5fSAzi9pscg0SWZ9pVq-133" vertex="1" connectable="0">
          <mxGeometry x="-0.4264" relative="1" as="geometry">
            <mxPoint x="2" y="12" as="offset" />
          </mxGeometry>
        </mxCell>
        <mxCell id="v5fSAzi9pscg0SWZ9pVq-126" value="" style="ellipse;shape=doubleEllipse;whiteSpace=wrap;html=1;aspect=fixed;sketch=1;fontFamily=Comic Sans MS;fillColor=#67AB9F;strokeColor=#67AB9F;" parent="1" vertex="1">
          <mxGeometry x="620" y="670" width="10" height="10" as="geometry" />
        </mxCell>
        <mxCell id="v5fSAzi9pscg0SWZ9pVq-139" style="edgeStyle=none;rounded=0;sketch=1;orthogonalLoop=1;jettySize=auto;html=1;entryX=0.54;entryY=1.25;entryDx=0;entryDy=0;entryPerimeter=0;fontFamily=Comic Sans MS;fontColor=#000000;strokeColor=#67AB9F;strokeWidth=3;" parent="1" source="v5fSAzi9pscg0SWZ9pVq-131" target="v5fSAzi9pscg0SWZ9pVq-138" edge="1">
          <mxGeometry relative="1" as="geometry" />
        </mxCell>
        <mxCell id="v5fSAzi9pscg0SWZ9pVq-131" value="" style="ellipse;shape=doubleEllipse;whiteSpace=wrap;html=1;aspect=fixed;sketch=1;fontFamily=Comic Sans MS;fillColor=#67AB9F;strokeColor=#67AB9F;" parent="1" vertex="1">
          <mxGeometry x="610" y="515" width="10" height="10" as="geometry" />
        </mxCell>
        <mxCell id="v5fSAzi9pscg0SWZ9pVq-132" value="" style="endArrow=none;html=1;rounded=0;sketch=1;strokeColor=#67AB9F;startArrow=none;dashed=1;" parent="1" source="v5fSAzi9pscg0SWZ9pVq-92" target="v5fSAzi9pscg0SWZ9pVq-131" edge="1">
          <mxGeometry width="50" height="50" relative="1" as="geometry">
            <mxPoint x="530" y="520" as="sourcePoint" />
            <mxPoint x="800" y="520" as="targetPoint" />
          </mxGeometry>
        </mxCell>
        <mxCell id="v5fSAzi9pscg0SWZ9pVq-140" style="edgeStyle=none;rounded=0;sketch=1;orthogonalLoop=1;jettySize=auto;html=1;entryX=1;entryY=0.5;entryDx=0;entryDy=0;fontFamily=Comic Sans MS;fontColor=#000000;strokeColor=#666666;strokeWidth=3;fillColor=#f5f5f5;" parent="1" source="v5fSAzi9pscg0SWZ9pVq-137" target="v5fSAzi9pscg0SWZ9pVq-47" edge="1">
          <mxGeometry relative="1" as="geometry" />
        </mxCell>
        <mxCell id="v5fSAzi9pscg0SWZ9pVq-141" value="Checkout" style="edgeLabel;html=1;align=center;verticalAlign=middle;resizable=0;points=[];fontFamily=Comic Sans MS;fontColor=#000000;" parent="v5fSAzi9pscg0SWZ9pVq-140" vertex="1" connectable="0">
          <mxGeometry x="-0.0247" relative="1" as="geometry">
            <mxPoint as="offset" />
          </mxGeometry>
        </mxCell>
        <mxCell id="v5fSAzi9pscg0SWZ9pVq-137" value="" style="ellipse;shape=doubleEllipse;whiteSpace=wrap;html=1;aspect=fixed;sketch=1;fontFamily=Comic Sans MS;fillColor=#f5f5f5;strokeColor=#666666;fontColor=#333333;" parent="1" vertex="1">
          <mxGeometry x="610" y="470" width="10" height="10" as="geometry" />
        </mxCell>
        <mxCell id="v5fSAzi9pscg0SWZ9pVq-138" value="tag-20220523" style="text;html=1;align=center;verticalAlign=middle;resizable=0;points=[];autosize=1;strokeColor=none;fillColor=none;fontFamily=Comic Sans MS;fontColor=#000000;" parent="1" vertex="1">
          <mxGeometry x="560" y="450" width="100" height="20" as="geometry" />
        </mxCell>
        <mxCell id="pwtdmJZ13lkaDZG3rlrT-4" style="edgeStyle=none;rounded=0;sketch=1;orthogonalLoop=1;jettySize=auto;html=1;fontFamily=Comic Sans MS;fontColor=#000000;strokeColor=#67AB9F;strokeWidth=3;" edge="1" parent="1" source="pwtdmJZ13lkaDZG3rlrT-1">
          <mxGeometry relative="1" as="geometry">
            <mxPoint x="230" y="520" as="targetPoint" />
          </mxGeometry>
        </mxCell>
        <mxCell id="pwtdmJZ13lkaDZG3rlrT-6" value="" style="edgeStyle=none;rounded=0;sketch=1;orthogonalLoop=1;jettySize=auto;html=1;fontFamily=Comic Sans MS;fontColor=#000000;strokeColor=#67AB9F;strokeWidth=3;" edge="1" parent="1" source="pwtdmJZ13lkaDZG3rlrT-1" target="pwtdmJZ13lkaDZG3rlrT-5">
          <mxGeometry relative="1" as="geometry" />
        </mxCell>
        <mxCell id="pwtdmJZ13lkaDZG3rlrT-1" value="" style="ellipse;shape=doubleEllipse;whiteSpace=wrap;html=1;aspect=fixed;sketch=1;fontFamily=Comic Sans MS;fillColor=#67AB9F;strokeColor=#67AB9F;" vertex="1" parent="1">
          <mxGeometry x="190" y="515" width="10" height="10" as="geometry" />
        </mxCell>
        <mxCell id="pwtdmJZ13lkaDZG3rlrT-3" value="" style="endArrow=none;html=1;rounded=0;sketch=1;strokeColor=#67AB9F;dashed=1;" edge="1" parent="1" target="pwtdmJZ13lkaDZG3rlrT-1">
          <mxGeometry width="50" height="50" relative="1" as="geometry">
            <mxPoint x="160" y="520" as="sourcePoint" />
            <mxPoint x="230" y="520" as="targetPoint" />
          </mxGeometry>
        </mxCell>
        <mxCell id="pwtdmJZ13lkaDZG3rlrT-5" value="tag-20220507" style="text;html=1;align=center;verticalAlign=middle;resizable=0;points=[];autosize=1;strokeColor=none;fillColor=none;fontFamily=Comic Sans MS;fontColor=#000000;" vertex="1" parent="1">
          <mxGeometry x="145" y="460" width="100" height="20" as="geometry" />
        </mxCell>
        <mxCell id="pwtdmJZ13lkaDZG3rlrT-8" value="tag-20220507" style="text;html=1;align=center;verticalAlign=middle;resizable=0;points=[];autosize=1;strokeColor=none;fillColor=none;fontFamily=Comic Sans MS;fontColor=#000000;" vertex="1" parent="1">
          <mxGeometry x="145" y="880" width="100" height="20" as="geometry" />
        </mxCell>
        <mxCell id="pwtdmJZ13lkaDZG3rlrT-9" value="" style="ellipse;shape=doubleEllipse;whiteSpace=wrap;html=1;aspect=fixed;sketch=1;fontFamily=Comic Sans MS;fillColor=#67AB9F;strokeColor=#67AB9F;" vertex="1" parent="1">
          <mxGeometry x="200" y="910" width="10" height="10" as="geometry" />
        </mxCell>
      </root>
    </mxGraphModel>
  </diagram>
</mxfile>
